<svg viewBox="0 0 420 560" xmlns="http://www.w3.org/2000/svg">

  <rect width="420" height="560" fill="#0a0a0a"/>

  <rect x="0" y="0" width="420" height="72" fill="rgba(255,255,255,0.025)"/>
  <line x1="0" y1="72" x2="420" y2="72" stroke="rgba(255,255,255,0.12)" stroke-width="1"/>

  <text x="24" y="24" font-family="monospace" font-size="8" fill="rgba(255,255,255,0.5)" letter-spacing="2">VS RESEARCH LABS</text>
  <line x1="24" y1="30" x2="132" y2="30" stroke="rgba(255,255,255,0.08)" stroke-width="1"/>
  <text x="24" y="50" font-family="monospace" font-size="12" font-weight="500" fill="rgba(255,255,255,0.88)" letter-spacing="1">HPLC PURITY</text>
  <text x="24" y="64" font-family="monospace" font-size="12" font-weight="500" fill="rgba(255,255,255,0.88)" letter-spacing="1">REPORT</text>
  <text x="396" y="24" font-family="monospace" font-size="7" fill="rgba(255,255,255,0.3)" letter-spacing="1" text-anchor="end">HPLC</text>
  <text x="396" y="36" font-family="monospace" font-size="7" fill="rgba(255,255,255,0.22)" letter-spacing="1" text-anchor="end">FORM-QC-002</text>

  <!-- Specimen block -->
  <rect x="24" y="86" width="372" height="54" rx="2" fill="rgba(255,255,255,0.02)" stroke="rgba(255,255,255,0.08)" stroke-width="1"/>
  <text x="36" y="104" font-family="monospace" font-size="7" fill="rgba(255,255,255,0.35)" letter-spacing="2">SPECIMEN IDENTITY</text>
  <line x1="36" y1="109" x2="384" y2="109" stroke="rgba(255,255,255,0.06)" stroke-width="1"/>
  <text x="36" y="124" font-family="monospace" font-size="8" fill="rgba(255,255,255,0.28)" letter-spacing="1">Product</text>
  <text x="180" y="124" font-family="monospace" font-size="8" fill="rgba(255,255,255,0.55)" letter-spacing="1">Semaglutide</text>
  <text x="36" y="136" font-family="monospace" font-size="8" fill="rgba(255,255,255,0.28)" letter-spacing="1">Batch No.</text>
  <text x="180" y="136" font-family="monospace" font-size="8" fill="rgba(255,255,255,0.55)" letter-spacing="1">SEM-2026-031</text>

  <!-- Chromatogram area (schematic) -->
  <text x="24" y="166" font-family="monospace" font-size="7" fill="rgba(255,255,255,0.35)" letter-spacing="2">CHROMATOGRAM</text>
  <line x1="24" y1="172" x2="396" y2="172" stroke="rgba(255,255,255,0.08)" stroke-width="1"/>

  <!-- Chromatogram axes -->
  <rect x="24" y="176" width="372" height="120" fill="rgba(255,255,255,0.01)" stroke="rgba(255,255,255,0.06)" stroke-width="1"/>
  <!-- Y-axis label -->
  <text x="30" y="242" font-family="monospace" font-size="6" fill="rgba(255,255,255,0.2)" text-anchor="middle" transform="rotate(-90,30,242)">AU</text>
  <!-- X-axis -->
  <line x1="40" y1="282" x2="384" y2="282" stroke="rgba(255,255,255,0.15)" stroke-width="1"/>
  <!-- Y-axis -->
  <line x1="40" y1="182" x2="40" y2="282" stroke="rgba(255,255,255,0.15)" stroke-width="1"/>
  <!-- X-axis ticks -->
  <line x1="108" y1="282" x2="108" y2="287" stroke="rgba(255,255,255,0.15)" stroke-width="1"/>
  <text x="108" y="294" font-family="monospace" font-size="6" fill="rgba(255,255,255,0.2)" text-anchor="middle">5</text>
  <line x1="176" y1="282" x2="176" y2="287" stroke="rgba(255,255,255,0.15)" stroke-width="1"/>
  <text x="176" y="294" font-family="monospace" font-size="6" fill="rgba(255,255,255,0.2)" text-anchor="middle">10</text>
  <line x1="244" y1="282" x2="244" y2="287" stroke="rgba(255,255,255,0.15)" stroke-width="1"/>
  <text x="244" y="294" font-family="monospace" font-size="6" fill="rgba(255,255,255,0.2)" text-anchor="middle">15</text>
  <line x1="312" y1="282" x2="312" y2="287" stroke="rgba(255,255,255,0.15)" stroke-width="1"/>
  <text x="312" y="294" font-family="monospace" font-size="6" fill="rgba(255,255,255,0.2)" text-anchor="middle">20</text>
  <text x="380" y="294" font-family="monospace" font-size="6" fill="rgba(255,255,255,0.2)" text-anchor="middle">min</text>
  <!-- Main analyte peak — tall, sharp, at ~10 min (x=176) -->
  <path d="M40 280 L136 280 Q140 280 144 278 Q148 276 152 272 Q156 265 160 252 Q164 238 168 218 Q172 200 176 190 Q180 200 184 218 Q188 238 192 252 Q196 265 200 272 Q204 276 208 278 Q212 280 216 280 L384 280" fill="rgba(255,255,255,0.03)" stroke="rgba(255,255,255,0.4)" stroke-width="1.5"/>
  <!-- Small impurity peak at ~6 min (x=122) -->
  <path d="M110 280 Q112 280 114 279 Q116 278 118 276 Q120 272 122 268 Q124 272 126 276 Q128 278 130 279 Q132 280 134 280" fill="rgba(255,255,255,0.02)" stroke="rgba(255,255,255,0.2)" stroke-width="1"/>

  <!-- Peak annotations -->
  <line x1="176" y1="190" x2="220" y2="200" stroke="rgba(255,255,255,0.12)" stroke-width="1"/>
  <text x="224" y="197" font-family="monospace" font-size="7" fill="rgba(255,255,255,0.35)">API 99.4%</text>
  <line x1="122" y1="268" x2="160" y2="258" stroke="rgba(255,255,255,0.1)" stroke-width="1"/>
  <text x="164" y="255" font-family="monospace" font-size="6" fill="rgba(255,255,255,0.25)">Imp. 0.2%</text>

  <!-- Integration results -->
  <text x="24" y="322" font-family="monospace" font-size="7" fill="rgba(255,255,255,0.35)" letter-spacing="2">INTEGRATION SUMMARY</text>
  <line x1="24" y1="328" x2="396" y2="328" stroke="rgba(255,255,255,0.08)" stroke-width="1"/>

  <rect x="24" y="330" width="372" height="16" fill="rgba(255,255,255,0.03)"/>
  <text x="32" y="342" font-family="monospace" font-size="7" fill="rgba(255,255,255,0.3)" letter-spacing="1">PEAK</text>
  <text x="140" y="342" font-family="monospace" font-size="7" fill="rgba(255,255,255,0.3)" letter-spacing="1">RT (min)</text>
  <text x="220" y="342" font-family="monospace" font-size="7" fill="rgba(255,255,255,0.3)" letter-spacing="1">AREA %</text>
  <text x="310" y="342" font-family="monospace" font-size="7" fill="rgba(255,255,255,0.3)" letter-spacing="1">ASSIGNMENT</text>
  <line x1="24" y1="346" x2="396" y2="346" stroke="rgba(255,255,255,0.07)" stroke-width="1"/>

  <text x="32" y="360" font-family="monospace" font-size="8" fill="rgba(255,255,255,0.5)">1</text>
  <text x="140" y="360" font-family="monospace" font-size="8" fill="rgba(255,255,255,0.45)">6.2</text>
  <text x="220" y="360" font-family="monospace" font-size="8" fill="rgba(255,255,255,0.45)">0.2%</text>
  <text x="310" y="360" font-family="monospace" font-size="8" fill="rgba(255,255,255,0.35)">Impurity</text>
  <line x1="24" y1="366" x2="396" y2="366" stroke="rgba(255,255,255,0.05)" stroke-width="1"/>

  <text x="32" y="380" font-family="monospace" font-size="8" fill="rgba(255,255,255,0.5)">2</text>
  <text x="140" y="380" font-family="monospace" font-size="8" fill="rgba(255,255,255,0.45)">10.4</text>
  <text x="220" y="380" font-family="monospace" font-size="8" fill="#C4A35A" opacity="0.85">99.4%</text>
  <text x="310" y="380" font-family="monospace" font-size="8" fill="rgba(255,255,255,0.35)">API (SEM)</text>
  <line x1="24" y1="386" x2="396" y2="386" stroke="rgba(255,255,255,0.05)" stroke-width="1"/>

  <text x="32" y="400" font-family="monospace" font-size="8" fill="rgba(255,255,255,0.5)">3</text>
  <text x="140" y="400" font-family="monospace" font-size="8" fill="rgba(255,255,255,0.45)">16.8</text>
  <text x="220" y="400" font-family="monospace" font-size="8" fill="rgba(255,255,255,0.45)">0.4%</text>
  <text x="310" y="400" font-family="monospace" font-size="8" fill="rgba(255,255,255,0.35)">Impurity</text>
  <line x1="24" y1="406" x2="396" y2="406" stroke="rgba(255,255,255,0.08)" stroke-width="1"/>

  <!-- Authorization -->
  <line x1="24" y1="430" x2="396" y2="430" stroke="rgba(255,255,255,0.07)" stroke-width="1"/>
  <rect x="24" y="438" width="160" height="32" rx="1" fill="rgba(255,255,255,0.015)" stroke="rgba(255,255,255,0.07)" stroke-width="1"/>
  <text x="36" y="452" font-family="monospace" font-size="7" fill="rgba(255,255,255,0.25)" letter-spacing="1">ANALYST</text>
  <text x="36" y="464" font-family="monospace" font-size="7" fill="rgba(255,255,255,0.18)" letter-spacing="1">QC LAB · VSR</text>

  <rect x="236" y="438" width="160" height="32" rx="1" fill="rgba(255,255,255,0.015)" stroke="rgba(255,255,255,0.07)" stroke-width="1"/>
  <text x="248" y="452" font-family="monospace" font-size="7" fill="rgba(255,255,255,0.25)" letter-spacing="1">METHOD</text>
  <text x="248" y="464" font-family="monospace" font-size="7" fill="rgba(255,255,255,0.18)" letter-spacing="1">RP-HPLC / UV 220 nm</text>

  <rect x="24" y="480" width="372" height="20" rx="1" fill="rgba(255,255,255,0.02)" stroke="rgba(255,255,255,0.06)" stroke-width="1"/>
  <text x="210" y="494" font-family="monospace" font-size="7" fill="rgba(255,255,255,0.28)" letter-spacing="1.5" text-anchor="middle">NOT FOR HUMAN USE · FOR RESEARCH ONLY</text>

  <line x1="0" y1="516" x2="420" y2="516" stroke="rgba(255,255,255,0.07)" stroke-width="1"/>
  <rect x="0" y="516" width="420" height="44" fill="rgba(255,255,255,0.01)"/>
  <text x="24" y="533" font-family="monospace" font-size="7" fill="rgba(255,255,255,0.22)" letter-spacing="1">VS RESEARCH LABS</text>
  <text x="24" y="547" font-family="monospace" font-size="7" fill="rgba(255,255,255,0.15)" letter-spacing="0.5">Research procurement instrument</text>
  <text x="396" y="533" font-family="monospace" font-size="7" fill="rgba(255,255,255,0.18)" letter-spacing="1" text-anchor="end">REV. A</text>
  <text x="396" y="547" font-family="monospace" font-size="7" fill="rgba(255,255,255,0.12)" letter-spacing="1" text-anchor="end">HPLC / QC-002</text>
</svg>
