<svg xmlns="http://www.w3.org/2000/svg" viewBox="0 0 100 100" role="img" aria-label="Velari Systems simplified V-and-DNA seal">
  <circle cx="50" cy="50" r="43" fill="none" stroke="#C49A48" stroke-width="1.35"/>
  <g fill="#1A1714">
    <rect x="24" y="23" width="18" height="2.7" rx=".6"/>
    <path d="M28 25.2h11L51 65v18.5Z"/>
  </g>
  <path d="M52 83 54 78l2-5 2-5 2-5 2-5-3.8-1.5-1.5 5-1.5 5-1.5 5-1.5 5-1.5 5Z" fill="#1A1714"/>
  <path d="M63 58c1-4 1-7 0-9-2-4 2-6 7-7 7-2 8-5 5-10-2-4-7-7-5-11 2-3 9-2 12-4" fill="none" stroke="#C49A48" stroke-width="3.1" stroke-linecap="round" stroke-linejoin="round"/>
  <path d="m64 41 8 3M69 29l7-3" fill="none" stroke="#C49A48" stroke-width="1.25" stroke-linecap="round"/>
  <circle cx="79" cy="19" r="2.7" fill="#C49A48"/>
  <circle cx="66" cy="46" r="2.2" fill="#C49A48"/>
</svg>
